<?xml version="1.0" encoding="iso-8859-1"?>
<!-- Generator: Adobe Illustrator 19.0.0, SVG Export Plug-In . SVG Version: 6.00 Build 0)  -->
<svg version="1.1" id="Layer_1" xmlns="http://www.w3.org/2000/svg" xmlns:xlink="http://www.w3.org/1999/xlink" x="0px" y="0px"
	 viewBox="0 0 512 512" style="enable-background:new 0 0 512 512;" xml:space="preserve">
<path style="fill:#FFD248;" d="M368.126,428.502c0,0,47.606-72.448,85.678-144.099l0.573,0.348v195.501H11.623v-46h69.001V325.001
	H11.623V163.999h97.751v34.5v28.75h57.5c12.652,0,23.001,10.349,23.001,23.001v155.25c0,12.646,10.349,23,23,23h155.252V428.502z"/>
<g>
	<rect x="11.623" y="325.007" style="fill:#31C0D8;" width="69.007" height="109.246"/>
	<path style="fill:#31C0D8;" d="M109.374,163.999H11.623v-46.001h230.001l2.303,0.46c-5.178,14.258-8.053,29.553-8.053,45.541
		c0,63.25,132.251,264.501,132.251,264.501H212.875c-12.651,0-23-10.354-23-23V250.25c0-12.652-10.349-23.001-23.001-23.001h-57.5
		v-28.75V163.999z"/>
</g>
<path style="fill:#F1F2F2;" d="M368.126,106.498c28.638,0,51.75,23.113,51.75,51.75c0,28.638-23.113,51.75-51.75,51.75
	c-28.638,0-51.75-23.113-51.75-51.75C316.375,129.611,339.488,106.498,368.126,106.498z"/>
<path style="fill:#F4661E;" d="M368.126,31.749c73.021,0,132.251,59.223,132.251,132.251c0,25.302-21.159,72.677-46.573,120.403
	c-38.072,71.65-85.678,144.099-85.678,144.099S235.875,227.249,235.875,163.999c0-15.988,2.874-31.283,8.053-45.541
	C262.44,67.859,311.086,31.749,368.126,31.749z M419.876,158.249c0-28.638-23.113-51.75-51.75-51.75
	c-28.638,0-51.75,23.113-51.75,51.75c0,28.638,23.113,51.75,51.75,51.75C396.763,209.999,419.876,186.888,419.876,158.249z"/>
<g>
	<path style="fill:#231F20;" d="M512,163.999c0-79.333-64.541-143.874-143.874-143.874c-57.234,0-109.132,34.316-131.839,86.25
		H11.623C5.204,106.375,0,111.579,0,117.998v362.253c0,6.419,5.204,11.623,11.623,11.623h442.753
		c6.419,0,11.623-5.204,11.623-11.623V286.207C496.94,227.637,512,187.63,512,163.999z M254.842,122.453
		c17.307-47.3,62.831-79.082,113.283-79.082c66.515,0,120.627,54.114,120.627,120.627c0,13.706-7.843,44.772-45.214,114.948
		c-27.171,51.138-59.592,103.231-75.44,128.126c-40.975-64.103-120.601-197.981-120.601-243.074
		C247.498,149.852,249.972,135.864,254.842,122.453z M69.001,422.628H23.246v-86.004h45.755V422.628z M23.246,468.628v-22.753
		h120.627v-23.246H92.247v-97.628c0-6.419-5.204-11.623-11.623-11.623H23.246V175.622h74.504v22.877h23.246v-22.877h68.878v-23.246
		H23.246v-22.755H228.41c-2.763,11.262-4.159,22.771-4.159,34.378c0,28.268,22.758,82.674,67.641,161.709
		c21.062,37.088,42.309,71.267,54.944,91.17H212.875c-6.273,0-11.377-5.104-11.377-11.377v-155.25
		c0-19.092-15.532-34.624-34.624-34.624h-69v23.246h69c6.273,0,11.378,5.105,11.378,11.378v155.25
		c0,19.091,15.532,34.623,34.623,34.623h155.252c3.914,0,7.564-1.969,9.713-5.24c0.392-0.596,32.502-49.57,64.913-106.405v140.15
		H23.246V468.628z"/>
	<path style="fill:#231F20;" d="M431.499,158.249c0-34.944-28.429-63.373-63.373-63.373s-63.373,28.429-63.373,63.373
		s28.429,63.373,63.373,63.373C403.07,221.622,431.499,193.193,431.499,158.249z M327.999,158.249
		c0-22.126,18.001-40.127,40.127-40.127s40.127,18.001,40.127,40.127s-18.001,40.127-40.127,40.127
		C346,198.376,327.999,180.375,327.999,158.249z"/>
	<rect x="57.623" y="215.621" style="fill:#231F20;" width="23" height="23.246"/>
</g>
<g>
</g>
<g>
</g>
<g>
</g>
<g>
</g>
<g>
</g>
<g>
</g>
<g>
</g>
<g>
</g>
<g>
</g>
<g>
</g>
<g>
</g>
<g>
</g>
<g>
</g>
<g>
</g>
<g>
</g>
</svg>
