<?xml version="1.0" encoding="iso-8859-1"?>
<!-- Generator: Adobe Illustrator 19.0.0, SVG Export Plug-In . SVG Version: 6.00 Build 0)  -->
<svg version="1.1" id="Layer_1" xmlns="http://www.w3.org/2000/svg" xmlns:xlink="http://www.w3.org/1999/xlink" x="0px" y="0px"
	 viewBox="0 0 512 512" style="enable-background:new 0 0 512 512;" xml:space="preserve">
<path style="fill:#31C0D8;" d="M472.816,334.367h-78.367l-2.092-1.255c22.572-36.674,56.214-93.418,77.112-140.112
	c8.888,24.551,13.796,51.082,13.796,78.673c0,21.939-3.03,43.051-8.877,63.112L472.816,334.367z"/>
<path style="fill:#F1F2F2;" d="M368.327,370.939c0,0,9.929-15.051,24.031-37.826l2.092,1.255h78.367l1.572,0.418
	c-27.276,96.235-115.888,166.766-221,166.766c-16.194,0-31.867-1.674-47.123-4.908l0.102-0.317V334.367h135.837l2.092-1.255
	C358.5,355.888,368.327,370.939,368.327,370.939z"/>
<g>
	<path style="fill:#31C0D8;" d="M344.296,333.112l-2.092,1.255H206.367V208.98h67.918l0.317-0.204
		C295.387,251.919,324.235,300.511,344.296,333.112z"/>
	<rect x="91.429" y="208.98" style="fill:#31C0D8;" width="114.939" height="125.388"/>
	<path style="fill:#31C0D8;" d="M206.367,334.367v161.959l-0.102,0.317c-44.617-9.194-84.429-31.347-115.464-62.388l0.628-0.623
		v-99.265H206.367z"/>
	<path style="fill:#31C0D8;" d="M91.429,334.367v99.265l-0.628,0.623c-27.271-27.266-47.648-61.326-58.408-99.469l1.566-0.419
		H91.429z"/>
	<path style="fill:#31C0D8;" d="M91.429,208.98v125.388H33.959l-1.566,0.418c-5.852-20.061-8.883-41.173-8.883-63.112
		c0-21.939,3.03-43.051,8.883-63.112l1.566,0.418H91.429z"/>
	<path style="fill:#31C0D8;" d="M91.429,109.714v99.265H33.959l-1.566-0.418c10.76-38.133,31.138-72.205,58.408-99.48
		L91.429,109.714z"/>
	<path style="fill:#31C0D8;" d="M206.367,47.02V208.98H91.429v-99.265l-0.628-0.632c31.036-31.021,70.847-53.183,115.464-62.368
		L206.367,47.02z"/>
	<path style="fill:#31C0D8;" d="M274.602,208.776l-0.317,0.204h-67.918V47.02l-0.102-0.306c15.256-3.244,30.929-4.918,47.123-4.918
		c10.76,0,21.316,0.837,31.765,2.194c-22.781,21.949-36.989,52.562-36.989,86.622C248.163,148.061,259.24,176.898,274.602,208.776z"
		/>
</g>
<path style="fill:#FFFFFF;" d="M368.327,109.714c20.163,0,36.571,16.408,36.571,36.571s-16.408,36.571-36.571,36.571
	s-36.571-16.408-36.571-36.571S348.163,109.714,368.327,109.714z"/>
<path style="fill:#F4661E;" d="M488.49,130.612c0,14.53-7.633,36.878-19.02,62.388c-20.898,46.694-54.541,103.439-77.112,140.112
	c-14.102,22.776-24.031,37.826-24.031,37.826s-9.826-15.051-24.031-37.826c-20.061-32.602-48.909-81.194-69.694-124.337
	c-15.362-31.878-26.439-60.715-26.439-78.164c0-34.062,14.21-64.674,36.989-86.622c21.633-20.684,50.889-33.541,83.174-33.541
	C434.673,10.449,488.49,64.265,488.49,130.612z M404.898,146.286c0-20.163-16.408-36.571-36.571-36.571
	s-36.571,16.408-36.571,36.571s16.408,36.571,36.571,36.571S404.898,166.449,404.898,146.286z"/>
<g>
	<path style="fill:#231F20;" d="M498.939,130.612C498.939,58.593,440.346,0,368.327,0c-32.038,0-62.613,11.691-86.688,33.038
		c-9.952-1.134-19.24-1.691-28.251-1.691c-16.655,0-33.24,1.731-49.229,5.133c-45.726,9.412-87.478,31.962-120.747,65.214
		C54.5,130.61,33.38,166.584,22.361,205.635c-6.17,21.157-9.3,43.376-9.3,66.039s3.129,44.882,9.275,65.949
		c11.042,39.143,32.162,75.112,61.075,104.021c33.244,33.25,74.996,55.807,120.686,65.221c16.071,3.408,32.654,5.136,49.29,5.136
		c53.334,0,103.836-17.1,146.045-49.45c40.864-31.321,71.054-75.682,84.987-124.841c6.168-21.161,9.295-43.38,9.295-66.035
		c0-26.72-4.385-53.017-13.023-78.238C492.954,165.373,498.939,144.782,498.939,130.612z M292.374,51.542
		c20.668-19.761,47.642-30.644,75.953-30.644c60.496,0,109.714,49.218,109.714,109.714c0,8.008-3.142,24.593-18.109,58.119
		c-15.948,35.635-41.678,82.368-76.458,138.879c-5.91,9.545-11.104,17.758-15.126,24.05c-4.016-6.293-9.212-14.499-15.153-24.024
		c-29.744-48.34-53.02-89.856-69.181-123.398c-20.994-43.566-25.401-64.086-25.401-73.627
		C258.612,100.6,270.613,72.51,292.374,51.542z M195.918,483.452c-35.21-9.442-67.426-27.577-94.041-52.991v-85.645h94.041V483.452z
		 M80.98,407.449c-14.829-18.845-26.506-40.025-34.45-62.632h34.45V407.449z M101.878,323.918v-104.49h94.041v104.49H101.878z
		 M80.98,198.531H46.527c7.933-22.585,19.613-43.776,34.452-62.636V198.531z M101.878,112.878
		c26.618-25.404,58.819-43.527,94.041-52.972v138.625h-94.041V112.878z M216.816,219.429h51.356
		c14.529,29.478,34.086,64.537,58.275,104.49H216.816V219.429z M263.711,52.51c-16.878,22.469-25.997,49.547-25.997,78.102
		c0,14.973,6.75,37.283,20.572,67.918h-41.47V55.348c11.995-2.049,24.256-3.103,36.571-3.103
		C256.77,52.245,260.205,52.336,263.711,52.51z M40.286,219.429H80.98v104.49H40.284c-4.196-16.851-6.325-34.385-6.325-52.245
		C33.959,253.835,36.083,236.319,40.286,219.429z M386.72,445.963c-38.53,29.529-84.635,45.139-133.332,45.139
		c-12.293,0-24.545-1.051-36.571-3.099V344.816h122.475c12.021,19.167,20.197,31.698,20.286,31.835
		c1.925,2.948,5.204,4.728,8.725,4.737c0.008,0,0.017,0,0.024,0c3.511,0,6.789-1.764,8.722-4.695
		c0.091-0.138,8.357-12.683,20.336-31.877h62.85C446.184,384.574,420.434,420.124,386.72,445.963z M466.494,323.918h-56.28
		c23.565-38.898,42.64-72.964,56.978-101.748c3.73,16.191,5.625,32.755,5.625,49.503
		C472.816,289.511,470.693,307.03,466.494,323.918z"/>
	<rect x="357.878" y="402.286" style="fill:#231F20;" width="20.898" height="20.898"/>
	<rect x="389.224" y="376.163" style="fill:#231F20;" width="20.898" height="20.898"/>
	<rect x="326.531" y="376.163" style="fill:#231F20;" width="20.898" height="20.898"/>
	<path style="fill:#231F20;" d="M300.408,114.939c0-23.046,18.75-41.796,41.796-41.796V52.245
		c-34.569,0-62.694,28.124-62.694,62.694H300.408z"/>
	<path style="fill:#231F20;" d="M321.306,146.286c0,25.928,21.093,47.02,47.02,47.02s47.02-21.092,47.02-47.02
		s-21.093-47.02-47.02-47.02S321.306,120.359,321.306,146.286z M368.327,120.163c14.404,0,26.122,11.719,26.122,26.122
		c0,14.404-11.719,26.122-26.122,26.122c-14.404,0-26.122-11.719-26.122-26.122C342.204,131.882,353.923,120.163,368.327,120.163z"
		/>
</g>
<g>
</g>
<g>
</g>
<g>
</g>
<g>
</g>
<g>
</g>
<g>
</g>
<g>
</g>
<g>
</g>
<g>
</g>
<g>
</g>
<g>
</g>
<g>
</g>
<g>
</g>
<g>
</g>
<g>
</g>
</svg>
