<?xml version="1.0" encoding="iso-8859-1"?>
<!-- Generator: Adobe Illustrator 19.0.0, SVG Export Plug-In . SVG Version: 6.00 Build 0)  -->
<svg version="1.1" id="Layer_1" xmlns="http://www.w3.org/2000/svg" xmlns:xlink="http://www.w3.org/1999/xlink" x="0px" y="0px"
	 viewBox="0 0 512 512" style="enable-background:new 0 0 512 512;" xml:space="preserve">
<polygon style="fill:#E6E7E8;" points="501.551,47.02 501.551,501.551 73.143,501.551 73.143,439.592 449.306,439.592 
	449.306,355.265 449.306,297.796 449.306,235.102 449.306,47.02 "/>
<polygon style="fill:#939598;" points="73.143,439.592 10.449,439.592 10.449,355.265 449.306,355.265 449.306,439.592 "/>
<path style="fill:#F1F2F2;" d="M282.122,114.939c0,20.168,16.408,36.571,36.571,36.571c20.163,0,36.571-16.404,36.571-36.571
	s-16.408-36.571-36.571-36.571C298.53,78.367,282.122,94.771,282.122,114.939z M449.306,47.02v188.082
	c-24.449,0-24.449-20.898-48.796-20.898c-24.449,0-24.449,20.898-48.796,20.898c-24.449,0-24.449-20.898-48.796-20.898
	c-24.347,0-24.347,20.898-48.796,20.898c-24.347,0-24.347-20.898-48.694-20.898c-24.347,0-24.347,20.898-48.796,20.898
	c-24.347,0-24.347-20.898-48.694-20.898s-24.347,20.898-48.796,20.898c-24.347,0-24.347-20.898-48.694-20.898V10.449h438.857V47.02z
	"/>
<path style="fill:#FFD248;" d="M318.694,78.367c20.163,0,36.571,16.404,36.571,36.571s-16.408,36.571-36.571,36.571
	c-20.163,0-36.571-16.404-36.571-36.571S298.53,78.367,318.694,78.367z"/>
<path style="fill:#31C0D8;" d="M449.306,297.796v57.469H10.449v-67.918v-73.143c24.347,0,24.347,20.898,48.694,20.898
	c24.449,0,24.449-20.898,48.796-20.898s24.347,20.898,48.694,20.898c24.449,0,24.449-20.898,48.796-20.898
	c24.347,0,24.347,20.898,48.694,20.898c24.449,0,24.449-20.898,48.796-20.898c24.347,0,24.347,20.898,48.796,20.898
	c24.347,0,24.347-20.898,48.796-20.898c24.347,0,24.347,20.898,48.796,20.898L449.306,297.796L449.306,297.796z"/>
<g>
	<path style="fill:#231F20;" d="M501.551,36.571h-41.796V10.449C459.755,4.678,455.076,0,449.306,0H10.449C4.678,0,0,4.678,0,10.449
		v429.143c0,5.771,4.678,10.449,10.449,10.449h52.245v51.51c0,5.771,4.679,10.449,10.449,10.449h428.408
		c5.77,0,10.449-4.678,10.449-10.449V47.02C512,41.25,507.321,36.571,501.551,36.571z M438.857,287.347h-94.041v20.898h94.041
		v36.571H20.898v-47.02h109.714v-20.898H20.898V227.19c2.384,1.36,4.542,3.203,7.093,5.392c6.731,5.778,15.109,12.969,31.153,12.969
		c16.101,0,24.502-7.196,31.253-12.979c5.567-4.769,9.245-7.919,17.543-7.919c8.304,0,11.979,3.155,17.542,7.929
		c6.731,5.778,15.109,12.969,31.152,12.969c16.101,0,24.502-7.196,31.253-12.979c5.567-4.769,9.245-7.919,17.543-7.919
		c8.304,0,11.979,3.155,17.542,7.929c6.731,5.778,15.109,12.969,31.152,12.969c16.101,0,24.502-7.196,31.253-12.979
		c5.567-4.769,9.246-7.919,17.543-7.919c8.296,0,11.976,3.15,17.543,7.919c6.751,5.782,15.152,12.979,31.253,12.979
		c16.025,0,24.404-7.178,31.138-12.946c5.591-4.789,9.284-7.952,17.658-7.952c8.297,0,11.976,3.15,17.543,7.919
		c5.112,4.377,11.175,9.56,20.804,11.822v42.953H438.857z M438.857,20.898v201.254c-2.43-1.368-4.618-3.232-7.209-5.451
		c-6.733-5.768-15.113-12.946-31.138-12.946c-16.101,0-24.502,7.196-31.253,12.979c-5.567,4.769-9.246,7.919-17.543,7.919
		c-8.375,0-12.068-3.164-17.659-7.952c-6.733-5.768-15.113-12.946-31.138-12.946c-16.025,0-24.404,7.178-31.138,12.946
		c-5.591,4.789-9.284,7.952-17.658,7.952c-8.304,0-11.979-3.155-17.542-7.929c-6.731-5.778-15.109-12.969-31.152-12.969
		c-16.025,0-24.404,7.178-31.138,12.946c-5.591,4.789-9.284,7.952-17.659,7.952c-8.304,0-11.979-3.155-17.542-7.929
		c-6.731-5.778-15.109-12.969-31.153-12.969c-16.025,0-24.404,7.178-31.138,12.946c-5.591,4.789-9.285,7.952-17.658,7.952
		c-8.304,0-11.979-3.155-17.542-7.929c-5.091-4.37-11.127-9.541-20.703-11.806V20.898H438.857z M20.898,365.714h417.959v63.428
		H20.898V365.714z M491.102,491.102H83.592v-41.061h365.714c5.77,0,10.449-4.678,10.449-10.449V57.469h31.347V491.102z"/>
	<rect x="381.388" y="386.612" style="fill:#231F20;" width="31.347" height="20.898"/>
	<rect x="334.367" y="386.612" style="fill:#231F20;" width="31.347" height="20.898"/>
	<rect x="47.02" y="386.612" style="fill:#231F20;" width="73.143" height="20.898"/>
	<rect x="177.633" y="287.347" style="fill:#231F20;" width="104.49" height="20.898"/>
	<path style="fill:#231F20;" d="M278.906,139.949l-14.621,14.621l14.778,14.778l14.621-14.621c4.415,2.785,9.323,4.854,14.561,6.048
		v22.082h20.898v-22.083c5.239-1.194,10.146-3.262,14.561-6.048l14.621,14.621l14.778-14.778l-14.621-14.621
		c2.786-4.416,4.855-9.323,6.048-14.562h22.083v-20.898h-22.083c-1.194-5.239-3.262-10.146-6.048-14.562l14.621-14.621
		l-14.778-14.778l-14.621,14.621c-4.415-2.786-9.323-4.854-14.561-6.048V47.02h-20.898v22.083
		c-5.239,1.194-10.146,3.262-14.561,6.048L279.063,60.53l-14.778,14.778l14.621,14.621c-2.786,4.416-4.855,9.323-6.048,14.562
		h-22.083v20.898h22.083C274.052,130.627,276.121,135.534,278.906,139.949z M318.694,88.816c14.404,0,26.122,11.719,26.122,26.122
		s-11.719,26.122-26.122,26.122c-14.404,0-26.122-11.719-26.122-26.122S304.29,88.816,318.694,88.816z"/>
	<path style="fill:#231F20;" d="M88.816,88.816c5.762,0,10.449,4.687,10.449,10.449h20.898c0-5.762,4.687-10.449,10.449-10.449
		c5.762,0,10.449,4.687,10.449,10.449h20.898c0-17.285-14.062-31.347-31.347-31.347c-8.023,0-15.347,3.032-20.898,8.008
		c-5.55-4.976-12.875-8.008-20.898-8.008c-17.285,0-31.347,14.062-31.347,31.347h20.898C78.367,93.504,83.055,88.816,88.816,88.816z
		"/>
	<path style="fill:#231F20;" d="M151.51,120.163c-17.285,0-31.347,14.062-31.347,31.347h20.898c0-5.762,4.687-10.449,10.449-10.449
		c5.762,0,10.449,4.687,10.449,10.449h20.898c0-5.762,4.687-10.449,10.449-10.449c5.762,0,10.449,4.687,10.449,10.449h20.898
		c0-17.285-14.062-31.347-31.347-31.347c-8.023,0-15.348,3.032-20.898,8.008C166.859,123.196,159.533,120.163,151.51,120.163z"/>
</g>
<g>
</g>
<g>
</g>
<g>
</g>
<g>
</g>
<g>
</g>
<g>
</g>
<g>
</g>
<g>
</g>
<g>
</g>
<g>
</g>
<g>
</g>
<g>
</g>
<g>
</g>
<g>
</g>
<g>
</g>
</svg>
