<?xml version="1.0" encoding="iso-8859-1"?>
<!-- Generator: Adobe Illustrator 19.0.0, SVG Export Plug-In . SVG Version: 6.00 Build 0)  -->
<svg version="1.1" id="Layer_1" xmlns="http://www.w3.org/2000/svg" xmlns:xlink="http://www.w3.org/1999/xlink" x="0px" y="0px"
	 viewBox="0 0 512 512" style="enable-background:new 0 0 512 512;" xml:space="preserve">
<polygon style="fill:#D1D3D4;" points="501.551,47.02 501.551,501.551 73.143,501.551 73.143,439.592 449.306,439.592 
	449.306,355.265 449.306,219.429 449.306,47.02 "/>
<path style="fill:#31C0D8;" d="M449.306,219.429v135.837H10.449V219.429c54.857,0,54.857,20.898,109.714,20.898
	c1.878,0,3.653,0,5.428-0.102c49.531-1.255,51.307-20.796,104.184-20.796c53.082,0,54.857,19.541,104.387,20.796
	c1.776,0.102,3.552,0.102,5.429,0.102C394.449,240.327,394.449,219.429,449.306,219.429z"/>
<path style="fill:#FFD248;" d="M334.367,229.878l-0.204,10.347c-49.531-1.255-51.307-20.796-104.388-20.796
	c-52.877,0-54.653,19.541-104.184,20.796l-0.204-10.347c0-57.678,46.817-104.49,104.49-104.49S334.367,172.199,334.367,229.878z"/>
<path style="fill:#F1F2F2;" d="M229.878,125.388c-57.673,0-104.49,46.811-104.49,104.49l0.204,10.347
	c-1.775,0.102-3.551,0.102-5.428,0.102c-54.857,0-54.857-20.898-109.714-20.898V10.449h438.857V47.02v172.408
	c-54.857,0-54.857,20.898-109.714,20.898c-1.878,0-3.653,0-5.428-0.102l0.204-10.347
	C334.367,172.199,287.551,125.388,229.878,125.388z"/>
<rect x="10.449" y="355.265" style="fill:#E6E6E6;" width="438.857" height="84.637"/>
<g>
	<path style="fill:#231F20;" d="M501.551,36.571h-41.796V10.449C459.755,4.678,455.076,0,449.306,0H10.449C4.678,0,0,4.678,0,10.449
		v429.143c0,5.771,4.678,10.449,10.449,10.449h52.245v51.51c0,5.771,4.678,10.449,10.449,10.449h428.408
		c5.77,0,10.449-4.678,10.449-10.449V47.02C512,41.249,507.321,36.571,501.551,36.571z M438.857,344.816H20.898V230.174
		c18.73,1.108,29.447,5.185,40.688,9.468c14.368,5.473,29.226,11.133,58.577,11.133c1.889,0,3.84,0,5.854-0.11
		c25.621-0.67,39.441-5.941,52.806-11.039c13.142-5.013,25.554-9.749,50.953-9.749c25.535,0,37.991,4.744,51.179,9.766
		c13.368,5.091,27.191,10.354,52.784,11.023c2.012,0.11,3.963,0.11,5.852,0.11c29.351,0,44.21-5.66,58.577-11.133
		c11.242-4.283,21.959-8.36,40.688-9.468V344.816z M135.846,229.164c0.385-51.526,42.416-93.327,94.031-93.327
		c51.615,0,93.647,41.801,94.031,93.327c-15.61-1.475-25.331-5.173-35.516-9.051c-14.375-5.473-29.238-11.133-58.618-11.133
		c-29.251,0-44.071,5.654-58.402,11.121C161.191,223.984,151.471,227.688,135.846,229.164z M438.857,20.898v188.341
		c-22.644,1.167-35.574,6.092-48.128,10.874c-12.248,4.665-23.871,9.089-45.914,9.691c-0.04-63.344-51.584-114.866-114.938-114.866
		S114.98,166.461,114.94,229.805c-22.043-0.604-33.667-5.027-45.914-9.691c-12.554-4.782-25.484-9.707-48.128-10.874V20.898H438.857
		z M20.898,365.714h417.959v63.428H20.898V365.714z M491.102,491.102H83.592v-41.061h365.714c5.77,0,10.449-4.678,10.449-10.449
		V57.469h31.347V491.102z"/>
	<rect x="381.388" y="386.612" style="fill:#231F20;" width="31.347" height="20.898"/>
	<rect x="334.367" y="386.612" style="fill:#231F20;" width="31.347" height="20.898"/>
	<rect x="47.02" y="386.612" style="fill:#231F20;" width="73.143" height="20.898"/>
	<rect x="219.429" y="52.245" style="fill:#231F20;" width="20.898" height="47.02"/>
	<rect x="355.265" y="167.184" style="fill:#231F20;" width="47.02" height="20.898"/>
	<rect x="57.469" y="167.184" style="fill:#231F20;" width="47.02" height="20.898"/>
	
		<rect x="313.466" y="92.777" transform="matrix(-0.7071 -0.7071 0.7071 -0.7071 471.6788 425.2649)" style="fill:#231F20;" width="20.898" height="44.335"/>
	
		<rect x="108.445" y="104.492" transform="matrix(-0.7071 -0.7071 0.7071 -0.7071 141.6936 288.5732)" style="fill:#231F20;" width="44.335" height="20.898"/>
</g>
<g>
</g>
<g>
</g>
<g>
</g>
<g>
</g>
<g>
</g>
<g>
</g>
<g>
</g>
<g>
</g>
<g>
</g>
<g>
</g>
<g>
</g>
<g>
</g>
<g>
</g>
<g>
</g>
<g>
</g>
</svg>
