<?xml version="1.0" encoding="iso-8859-1"?>
<!-- Generator: Adobe Illustrator 19.0.0, SVG Export Plug-In . SVG Version: 6.00 Build 0)  -->
<svg version="1.1" id="Layer_1" xmlns="http://www.w3.org/2000/svg" xmlns:xlink="http://www.w3.org/1999/xlink" x="0px" y="0px"
	 viewBox="0 0 512 512" style="enable-background:new 0 0 512 512;" xml:space="preserve">
<path style="fill:#A2C9EC;" d="M512,256c0,141.241-114.759,256-256,256S0,397.241,0,256S114.759,0,256,0S512,114.759,512,256"/>
<g>
	<path style="fill:#42B05C;" d="M256,0c-35.31,0-69.738,7.062-100.634,20.303c-1.766,7.945-8.828,22.952-7.945,27.366
		c0.883,0,65.324-65.324,57.379-21.186c-5.297,28.248-57.379,28.248-55.614,57.379c54.731,21.186,74.152-40.607,120.938-40.607
		c15.89,0,55.614-24.717,63.559-19.421c30.897,20.303-7.062,92.69-30.897,68.855c-22.952-22.952-54.731,7.945-53.848,43.255
		c11.476,0.883,16.772-33.545,27.366-22.069c11.476,12.359,7.062,37.959-8.828,43.255c-15.89,6.179-80.331-43.255-64.441-6.179
		c17.655,41.49-52.083,73.269,17.655,56.497c32.662-7.945,22.069,16.772,37.076,29.131c18.538,14.124,10.593-19.421,23.834-14.124
		c19.421,7.945-3.531,27.366,27.366,13.241c36.193-16.772,22.069,8.828,33.545,25.6c21.186,30.014,72.386,60.028,98.869,18.538
		c6.179-9.71,2.648-86.51,41.49-35.31c24.717,32.662,16.772-38.841,19.421-57.379C472.276,79.448,373.407,0,256,0"/>
	<path style="fill:#42B05C;" d="M92.69,323.09l1.766-0.883l1.766-0.883L92.69,323.09z"/>
	<path style="fill:#42B05C;" d="M290.428,371.641l-46.786-35.31l-31.779,0.883L179.2,326.621l-25.6-17.655l-58.262,13.241
		l-24.717,12.359l-26.483,36.193l9.71,42.372c2.648,3.531,5.297,7.062,7.945,10.593l49.434,22.952l33.545,4.414l20.303,40.607
		l0.883,4.414C193.324,505.821,224.221,512,256,512c22.069,0,43.255-2.648,63.559-7.945l7.062-39.724l30.897-24.717l12.359-39.724
		h-63.559L290.428,371.641z"/>
</g>
<path style="fill:#ECBA16;" d="M254.234,411.366l-14.124-10.593c51.2-64.441,102.4-162.428,131.531-227.752l15.89,7.062
	C358.4,246.29,305.434,346.041,254.234,411.366"/>
<path style="fill:#ED7161;" d="M150.069,194.207c0,19.421-15.89,35.31-35.31,35.31s-35.31-15.89-35.31-35.31
	s15.89-35.31,35.31-35.31S150.069,174.786,150.069,194.207"/>
<path style="fill:#42B05C;" d="M3.531,297.49L3.531,297.49c0.883,0,0.883-0.883,1.766-0.883
	c11.476-11.476,21.186-13.241,30.897-30.897c9.71-16.772-1.766-16.772,0-45.903c1.766-28.248-1.766-15.007,0-45.903
	c0.883-18.538-2.648-22.952-10.593-29.131l0,0C8.828,179.2,0,216.276,0,256C0,270.124,0.883,284.248,3.531,297.49"/>
<path style="fill:#ED7161;" d="M264.828,423.724c0,19.421-15.89,35.31-35.31,35.31s-35.31-15.89-35.31-35.31
	c0-19.421,15.89-35.31,35.31-35.31S264.828,404.303,264.828,423.724"/>
<g>
	<path style="fill:#ECBA16;" d="M49.434,105.048c-4.414,5.297-7.945,10.593-11.476,16.772c4.414,5.297,20.303,24.717,46.786,52.083
		l12.359-12.359c-25.6-26.483-42.372-46.786-45.903-51.2L49.434,105.048z"/>
	<path style="fill:#ECBA16;" d="M415.779,56.497l-0.883,2.648c0,0-12.359,41.49-26.483,78.566l16.772,6.179
		c11.476-30.014,21.186-63.559,25.6-75.034C426.372,64.441,421.076,60.028,415.779,56.497"/>
	<path style="fill:#ECBA16;" d="M484.634,370.759h-7.945c-127.117,0-248.938-87.393-329.269-160.662l-11.476,13.241
		c82.097,75.034,208.331,164.193,339.862,165.076C478.455,382.234,481.986,376.938,484.634,370.759"/>
	<path style="fill:#ECBA16;" d="M152.717,487.283l-1.766,1.766c6.179,2.648,12.359,5.297,18.538,7.945
		c15.007-12.359,30.014-25.6,45.021-40.607l-12.359-12.359C186.262,459.917,169.49,474.041,152.717,487.283"/>
</g>
<path style="fill:#ED7161;" d="M423.724,158.897c0,19.421-15.89,35.31-35.31,35.31c-19.421,0-35.31-15.89-35.31-35.31
	s15.89-35.31,35.31-35.31C407.835,123.586,423.724,139.476,423.724,158.897"/>
<g>
</g>
<g>
</g>
<g>
</g>
<g>
</g>
<g>
</g>
<g>
</g>
<g>
</g>
<g>
</g>
<g>
</g>
<g>
</g>
<g>
</g>
<g>
</g>
<g>
</g>
<g>
</g>
<g>
</g>
</svg>
